# xmcd
#
# Track frame offsets:
#	150
#	9988
#	19690
#	29027
#	47586
#	60774
#	77029
#	98545
#	111556
#	126797
#	134708
#	147122
#	158657
#	170523
#	182343
#	193996
#	208261
#	227410
#	239399
#	252130
#	264150
#	277596
#
# Disc length: 3855 seconds
#
# Revision: 1
# Processed by: cddbd v1.5.2PL0 Copyright (c) Steve Scherf et al.
# Submitted via: audiograbber 1.83.01
#
DISCID=200f0d16
DTITLE=Various Artist - Country Gold (Reader's Digest) [Disc 3]
DYEAR=2013
DGENRE=Country
TTITLE0=Ned Miller - From A Jack To A King
TTITLE1=Brenda Lee - Coming On Strong
TTITLE2=Charley Pride - Kiss An Angel Good Mornin'
TTITLE3=Don Williams - I Believe In You
TTITLE4=Dolly Parton - Here You Come Again
TTITLE5=Kenny Rogers - Lucille
TTITLE6=John Denver - Back Home Again
TTITLE7=Charlie Rich - The Most Beautiful Girl
TTITLE8=Billie Jo Spears - Blanket On The Ground
TTITLE9=Roger Miller - Dang Me
TTITLE10=Johnny Paycheck - Take This Job And Shove It
TTITLE11=Mel McDaniel - Stand Up
TTITLE12=Patsy Cline - Let The Teardrops Fall
TTITLE13=Jerry Wallace - If You Leave Me Tonight I'll Cry
TTITLE14=Glen Campbell and Bobbie Gentry - All I Have To Do Is Dream
TTITLE15=Roy Clark - The Tips Of My Fingers
TTITLE16=Juice Newton - Angel Of The Morning
TTITLE17=Skeeter Davis - The End Of The World
TTITLE18=Jim Reeves - Bimbo
TTITLE19=Loretta Lynn - One's On The Way
TTITLE20=Lee Greenwood - Hearts Aren't Made To Break (They're Made To Love)
TTITLE21=Merle Haggard - From Graceland To The Promised Land
EXTD=
EXTT0=
EXTT1=
EXTT2=
EXTT3=
EXTT4=
EXTT5=
EXTT6=
EXTT7=
EXTT8=
EXTT9=
EXTT10=
EXTT11=
EXTT12=
EXTT13=
EXTT14=
EXTT15=
EXTT16=
EXTT17=
EXTT18=
EXTT19=
EXTT20=
EXTT21=
PLAYORDER=
